<?xml version="1.0" standalone="no"?><!DOCTYPE svg PUBLIC "-//W3C//DTD SVG 1.1//EN" "http://www.w3.org/Graphics/SVG/1.1/DTD/svg11.dtd"><svg t="1484725682028" class="icon" style="" viewBox="0 0 1024 1024" version="1.1" xmlns="http://www.w3.org/2000/svg" p-id="3015" xmlns:xlink="http://www.w3.org/1999/xlink" width="200" height="200"><defs><style type="text/css"></style></defs><path d="M244.881905 0.047297C155.84254-1.243773 0.023651 23.59821 0.023651 111.346504l0 823.614127c0 49.171989 39.867376 89.039365 89.039365 89.039365 0 0 82.539491-44.519683 168.173101-44.519683C349.436379 979.480313 445.220476 1023.999995 445.220476 1023.999995c49.171989 0 89.039365-39.867376 89.039365-89.039365L534.259841 133.606345C506.746677 38.9575 364.484032 1.805825 244.881905 0.047297zM489.740159 934.96063c0 24.574865-19.944818 44.519683-44.519683 44.519683 0 0-102.039112-44.519683-186.092273-44.519683C165.59235 934.96063 89.063016 979.480313 89.063016 979.480313c-24.574865 0-44.519683-19.944818-44.519683-44.519683L44.543334 111.346504c0-27.401865 51.93221-69.050028 200.338571-66.779524 86.145586 1.313331 189.831926 27.312825 244.858254 89.039365L489.740159 934.96063z" p-id="3016"></path><path d="M779.118095 0.047297c-119.602127 1.758527-261.864773 38.910203-289.377936 133.559048l0 801.354285c0 49.171989 39.867376 89.039365 89.039365 89.039365 0 0 95.784097-44.519683 187.984359-44.519683C852.397493 979.480313 934.936984 1023.999995 934.936984 1023.999995c49.171989 0 89.039365-39.867376 89.039365-89.039365L1023.976349 111.346504C1023.976349 23.59821 868.15746-1.243773 779.118095 0.047297zM979.456666 934.96063c0 24.574865-19.944818 44.519683-44.519683 44.519683 0 0-76.529334-44.519683-170.065187-44.519683C680.818636 934.96063 578.779524 979.480313 578.779524 979.480313c-24.574865 0-44.519683-19.944818-44.519683-44.519683L534.259841 133.606345c55.026328-61.72654 158.712668-87.726034 244.858254-89.039365 148.406362-2.270504 200.338571 39.377659 200.338571 66.779524L979.456666 934.96063z" p-id="3017"></path></svg>